# xmcd
#
# Track frame offsets:
#	150
#	10976
#	23001
#	30775
#	38485
#	44484
#	59013
#	69114
#	79357
#	98795
#	122763
#	133371
#	141902
#	150372
#	165812
#	181385
#	193116
#	208332
#	227309
#	239390
#	253720
#
# Disc length: 3540 seconds
#
# Revision: 0
# Processed by: cddbd v1.4PL0 Copyright (c) Steve Scherf et al.
# Submitted via: dBpowerAMP V4.0
#
DISCID=130dd215
DTITLE=Akompaniament do piosenek z melodia  - CD-1
DYEAR=1900
DGENRE=Country
TTITLE0=Jeszcze Polska (Hymn narodowy) (str. 31) 
TTITLE1=Rota   (str. 33)
TTITLE2=Mazurek 3-go Maja   (str. 24)
TTITLE3=Piekna nasza Polska cata   (str. 22)
TTITLE4=Na Wawel, na Wawel   (str. 185)
TTITLE5=Jak dlugo w sercach naszych   (str. 20) 
TTITLE6=Warszawianka   (str. 41)
TTITLE7=Czesc ci, Polsko   (str. 15) 
TTITLE8=Czerwone maki   (str. 12) 
TTITLE9=Piosenka o mojej Warszawie   (str. 29) 
TTITLE10=Hymn do Baltyku   (str. 18)
TTITLE11=Wszystko, co nasze   (str. 43)
TTITLE12=Marsz, marsz Polonia   (str. 21)
TTITLE13=U kochany kraj   (str. 39)
TTITLE14=Tu wszedzie jest moja Ojczyzna   (str. 37)
TTITLE15=Polonez warszawski   (str. 211)
TTITLE16=Gaude Mater Polonia   (str. 17) 
TTITLE17=Boze, cos Polske   (str. 11) 
TTITLE18=Czesc Polskiej ziemi, czesc   (str. 16) 
TTITLE19=Ojczyzna ma droga   (str. 25)
TTITLE20=Ojczyzno jedyna   (str. 26)
EXTD=Akompaniament do piosenek z melodia \nFrom Ararat
EXTT0=
EXTT1=
EXTT2=
EXTT3=
EXTT4=
EXTT5=
EXTT6=
EXTT7=
EXTT8=
EXTT9=
EXTT10=
EXTT11=
EXTT12=
EXTT13=
EXTT14=
EXTT15=
EXTT16=
EXTT17=
EXTT18=
EXTT19=
EXTT20=
PLAYORDER=
